<svg xmlns="http://www.w3.org/2000/svg" viewBox="0 0 24 24" fill="none">
  <path d="M21.5 8.5s-.1-1.8-.7-2.6c-.6-.9-1.4-.9-1.8-1-2.4-.2-6-.2-6-.2s-3.6 0-6 .2c-.4 0-1.2.1-1.8 1-.6.8-.7 2.6-.7 2.6S4 10.6 4 12v1.5c0 1.4.1 3.5.5 4.5.4 1 1.2 1.1 1.5 1.2 1.1.1 4.5.2 6 .2 1.5 0 4.9-.1 6-.2.3 0 1.1-.1 1.5-1.2.4-1 .5-3.1.5-4.5V12c0-1.4-.1-3.5-.5-4.5Z" stroke="#C8A24A" stroke-width="1.5" stroke-linejoin="round"/>
  <path d="m10.5 15.5 3.9-2.4-3.9-2.4v4.8Z" fill="#C8A24A" stroke="#C8A24A" stroke-width="1.2" stroke-linejoin="round"/>
</svg>

